<?xml version="1.0" standalone="no"?>
<!DOCTYPE svg PUBLIC "-//W3C//DTD SVG 20010904//EN"
 "http://www.w3.org/TR/2001/REC-SVG-20010904/DTD/svg10.dtd">
<svg version="1.0" xmlns="http://www.w3.org/2000/svg"
 width="1600.000000pt" height="1600.000000pt" viewBox="0 0 1600.000000 1600.000000"
 preserveAspectRatio="xMidYMid meet">

<g transform="translate(0.000000,1600.000000) scale(0.100000,-0.100000)"
fill="#000000" stroke="none">
<path d="M4079 9373 c-11 -27 -32 -88 -46 -138 -13 -49 -37 -121 -53 -160 -15
-38 -36 -104 -45 -145 -30 -127 -36 -136 -91 -145 -27 -4 -107 -6 -179 -5 -71
1 -199 2 -282 1 -140 -1 -153 -2 -153 -19 0 -10 18 -31 41 -48 22 -16 73 -54
114 -84 40 -30 106 -77 146 -105 66 -45 192 -137 212 -155 9 -8 -13 -97 -41
-162 -12 -26 -35 -93 -52 -150 -17 -57 -41 -134 -54 -173 -49 -147 -49 -146
-37 -158 8 -8 22 -3 51 19 21 16 88 64 147 106 59 43 117 86 128 97 11 10 40
30 65 44 25 15 59 40 75 58 17 17 42 37 58 45 26 14 30 13 95 -35 106 -78 171
-127 247 -184 39 -29 93 -68 120 -87 28 -18 58 -42 68 -52 10 -10 22 -18 28
-18 22 0 19 32 -10 116 -16 49 -37 116 -46 149 -8 33 -27 87 -40 120 -21 50
-49 144 -71 240 -5 21 31 53 211 180 50 35 101 75 115 88 14 13 43 34 65 47
63 38 115 83 115 103 0 20 26 18 -383 23 -148 1 -272 5 -275 8 -3 4 -14 39
-24 79 -10 39 -26 88 -35 107 -9 19 -33 89 -54 155 -65 209 -92 285 -101 285
-5 0 -18 -21 -29 -47z m72 -184 c21 -63 49 -148 60 -189 12 -41 38 -117 57
-167 l36 -93 296 0 295 -1 -41 -37 c-23 -20 -56 -46 -73 -57 -82 -53 -319
-226 -340 -249 -27 -29 -26 -40 28 -185 17 -46 31 -90 31 -98 0 -8 12 -45 27
-81 14 -37 36 -104 48 -149 l22 -82 -41 30 c-23 16 -63 45 -91 65 -27 19 -81
59 -120 88 -38 29 -109 80 -156 113 l-86 60 -39 -31 c-21 -18 -53 -41 -70 -52
-18 -10 -74 -51 -125 -90 -52 -39 -130 -95 -175 -125 l-80 -55 19 70 c10 39
32 107 49 151 31 83 39 109 85 259 l27 88 -51 47 c-28 25 -81 66 -117 91 -37
25 -122 86 -188 135 l-122 90 299 5 299 5 12 35 c7 19 20 62 29 95 10 33 21
65 26 70 4 6 19 52 34 103 27 99 87 264 93 258 2 -2 21 -55 43 -117z"/>
<path d="M3401 9347 c-96 -34 -125 -171 -52 -241 35 -34 73 -44 128 -36 103
16 151 139 89 228 -15 23 -36 44 -45 46 -44 13 -89 14 -120 3z m117 -49 c67
-73 42 -166 -49 -183 -103 -19 -157 99 -83 177 36 37 100 40 132 6z"/>
<path d="M4609 9273 c-83 -70 -77 -193 11 -238 39 -20 115 -19 152 3 59 34 86
130 51 182 -45 68 -64 80 -124 80 -48 0 -63 -5 -90 -27z m152 -42 c23 -24 29
-38 29 -75 0 -59 -30 -95 -85 -102 -103 -13 -154 100 -81 179 36 39 97 38 137
-2z"/>
<path d="M6072 9028 c-36 -61 -132 -247 -132 -258 0 -6 32 -10 81 -10 l81 0
-7 -32 c-4 -18 -17 -58 -30 -88 -12 -30 -26 -66 -29 -80 -4 -14 -31 -101 -61
-195 -30 -93 -80 -251 -111 -350 -31 -99 -65 -205 -76 -235 -10 -30 -40 -125
-65 -210 -25 -85 -52 -167 -59 -182 -8 -15 -14 -29 -14 -33 0 -3 86 -5 190 -5
164 0 190 2 190 15 0 9 9 34 20 55 11 22 33 91 49 152 l29 113 260 3 259 2 28
-107 c15 -60 36 -136 47 -170 l19 -63 199 0 c150 0 200 3 200 12 0 13 -64 220
-130 423 -43 133 -103 327 -149 480 -16 55 -41 133 -56 174 -15 40 -33 101
-41 135 -8 33 -34 120 -58 191 -25 72 -55 167 -67 213 l-22 82 -263 0 -262 0
-20 -32z m403 -738 c25 -96 52 -194 61 -218 9 -24 15 -45 13 -47 -7 -6 -318
-10 -324 -4 -3 3 6 40 20 81 14 42 39 127 55 189 16 63 41 150 57 193 l27 79
23 -49 c12 -28 43 -128 68 -224z"/>
<path d="M12903 8975 c-21 -33 -56 -98 -79 -145 l-41 -85 93 -3 c89 -3 94 -4
95 -25 0 -12 0 -325 -1 -694 l-1 -673 180 0 181 0 0 365 c0 397 5 452 49 493
71 68 143 80 221 39 88 -47 84 -25 91 -485 3 -224 7 -408 7 -409 1 -2 82 -3
180 -3 l179 0 1 358 c2 422 -7 574 -37 652 -44 115 -116 195 -201 220 -19 6
-80 13 -136 17 -142 8 -224 -13 -304 -78 -19 -16 -38 -29 -42 -29 -4 0 -9 121
-10 270 l-3 270 -193 2 -192 3 -37 -60z"/>
<path d="M7919 8601 c-61 -9 -145 -37 -170 -58 -25 -21 -39 -15 -39 17 l0 30
-203 0 -204 0 -66 -140 c-37 -78 -67 -143 -67 -145 0 -2 39 -6 88 -7 l87 -3 3
-472 2 -473 180 0 180 0 1 63 c1 34 3 213 5 396 l4 335 52 53 c70 71 95 80
213 85 l100 4 3 149 c1 81 -1 152 -6 157 -13 13 -100 17 -163 9z"/>
<path d="M8902 8600 c-51 -3 -96 -10 -100 -15 -13 -19 -88 -65 -105 -65 -13 0
-17 9 -17 35 l0 35 -132 1 c-73 1 -159 3 -191 4 -52 1 -60 -1 -76 -24 -27 -37
-98 -178 -115 -228 l-15 -43 89 0 90 0 0 -475 0 -475 174 0 174 0 4 373 c4
393 4 396 54 468 46 67 126 92 322 99 13 0 17 171 6 266 -7 58 9 53 -162 44z"/>
<path d="M10885 8599 c-162 -23 -277 -107 -348 -253 -61 -124 -71 -177 -71
-381 -1 -162 1 -187 22 -255 36 -111 68 -168 136 -235 73 -73 156 -111 283
-128 190 -25 349 21 463 135 60 60 144 188 132 200 -4 4 -63 26 -131 48 l-124
40 -38 -44 c-50 -56 -110 -86 -175 -86 -110 0 -174 40 -199 123 -8 28 -15 61
-15 74 l0 23 343 0 c198 0 348 4 357 10 32 20 11 286 -35 442 -28 97 -125 211
-210 249 -96 42 -253 58 -390 38z m216 -315 c27 -13 66 -76 83 -131 l7 -23
-181 0 -182 0 7 38 c9 52 26 82 57 105 51 38 148 43 209 11z"/>
<path d="M12040 8595 c-47 -7 -120 -20 -162 -30 -92 -20 -90 -14 -52 -160 14
-55 28 -110 31 -122 3 -13 6 -23 7 -23 0 0 47 9 104 20 113 22 243 25 311 7
49 -13 79 -46 83 -92 l3 -30 -125 -7 c-198 -10 -348 -58 -421 -135 -21 -21
-54 -70 -74 -110 l-37 -71 4 -109 c4 -98 7 -114 37 -173 18 -36 47 -80 65 -99
71 -76 259 -131 447 -131 114 0 294 26 387 57 l82 27 0 410 c0 451 -2 465 -61
576 -92 173 -312 241 -629 195z m326 -698 c8 -8 9 -245 1 -253 -3 -4 -52 -7
-109 -8 -96 -1 -107 1 -141 24 -43 30 -57 57 -57 113 0 71 43 110 139 127 51
10 157 7 167 -3z"/>
<path d="M9214 8592 l-61 -3 33 -112 c18 -62 56 -191 84 -287 29 -96 58 -197
65 -225 14 -54 106 -372 152 -522 l28 -93 91 0 c50 0 93 -2 96 -6 19 -19 -88
-235 -127 -257 -11 -6 -57 -11 -102 -11 -45 -1 -83 -3 -86 -6 -9 -10 -118
-232 -115 -235 12 -10 117 -36 187 -46 284 -40 441 75 526 386 15 55 42 147
60 205 18 58 45 146 59 195 24 83 79 268 154 520 16 55 52 174 80 265 27 91
53 180 57 198 l7 32 -181 0 -180 0 -30 -97 c-38 -128 -61 -210 -122 -433 -44
-162 -90 -323 -106 -370 -6 -19 -44 105 -83 270 -27 116 -77 323 -120 500 -11
41 -22 87 -25 103 l-5 27 -93 1 c-50 0 -112 1 -137 2 -25 1 -72 1 -106 -1z"/>
<path d="M3093 8472 c-89 -59 -224 -147 -300 -196 -76 -49 -170 -111 -210
-138 -40 -26 -75 -48 -78 -48 -3 0 -72 -46 -155 -102 -82 -57 -180 -123 -218
-146 -88 -55 -127 -91 -114 -104 9 -9 172 86 227 131 11 10 61 41 110 71 50
29 124 77 165 105 41 29 87 58 102 66 15 8 143 92 284 187 142 96 265 177 273
180 9 3 33 18 54 35 35 27 46 50 29 61 -4 2 -80 -44 -169 -102z"/>
<path d="M4784 8306 c-99 -44 -112 -186 -21 -243 81 -51 160 -36 208 39 25 41
22 121 -7 161 -36 50 -119 69 -180 43z m129 -46 c14 -11 31 -36 37 -55 21 -64
-33 -125 -111 -125 -40 0 -84 28 -94 60 -10 31 13 97 42 119 34 27 92 27 126
1z"/>
<path d="M3140 8135 c-82 -53 -266 -171 -282 -180 -10 -6 -62 -40 -115 -76
-54 -36 -201 -134 -328 -217 -276 -181 -278 -183 -274 -205 4 -18 13 -13 234
131 122 79 199 129 231 148 87 53 131 82 173 115 26 20 58 42 71 49 53 28 307
200 325 220 29 32 6 41 -35 15z"/>
<path d="M3360 7943 c-36 -24 -80 -51 -97 -59 -18 -8 -33 -18 -33 -23 0 -5
-17 -19 -37 -32 -21 -12 -108 -68 -193 -124 -138 -91 -362 -237 -505 -330
-284 -184 -339 -225 -317 -239 11 -7 98 29 107 44 3 5 61 45 128 89 67 44 149
99 182 122 33 23 132 88 220 145 88 57 178 116 200 131 21 16 61 41 88 56 27
16 71 44 97 63 26 19 50 34 54 34 4 0 30 17 59 39 42 30 115 76 124 76 1 0 4
12 8 28 10 38 -7 34 -85 -20z"/>
<path d="M4404 7695 c-27 -19 -74 -49 -104 -66 -30 -18 -66 -42 -80 -55 -14
-12 -41 -30 -61 -41 -48 -24 -143 -85 -243 -155 -44 -32 -86 -58 -93 -58 -7 0
-16 -6 -20 -13 -4 -6 -26 -24 -48 -38 -61 -38 -335 -219 -375 -247 -19 -13
-87 -58 -150 -99 -63 -41 -140 -91 -170 -111 -30 -21 -63 -41 -73 -47 -60 -35
-327 -213 -349 -234 -30 -26 -37 -51 -15 -51 7 0 61 33 120 73 59 39 139 92
177 117 97 63 300 199 330 221 14 10 52 35 85 55 33 21 116 74 185 119 69 45
140 90 157 101 18 10 77 49 130 85 54 37 123 83 153 102 100 65 444 296 482
324 38 29 49 53 24 53 -8 0 -36 -16 -62 -35z"/>
<path d="M3324 7621 c-45 -24 -111 -67 -323 -207 -24 -16 -71 -47 -105 -69
-77 -49 -161 -106 -246 -166 -36 -25 -79 -54 -96 -65 -103 -63 -144 -95 -144
-114 0 -26 6 -25 43 6 16 14 56 39 88 55 33 16 59 33 59 38 0 4 21 20 48 34
45 25 271 171 397 257 109 75 129 88 200 131 92 56 171 130 138 129 -5 0 -31
-13 -59 -29z"/>
<path d="M3713 7557 c-18 -12 -54 -35 -80 -51 -43 -26 -297 -194 -369 -243
-33 -23 -170 -111 -262 -169 -34 -21 -88 -57 -120 -79 -31 -23 -78 -53 -104
-68 -55 -32 -93 -76 -79 -90 6 -6 92 45 244 147 128 86 237 156 242 156 4 0
24 12 43 28 19 15 95 65 168 112 283 181 364 239 364 260 0 25 -6 24 -47 -3z"/>
</g>
</svg>
